<svg width="10" height="10" viewBox="0 0 10 10" fill="none" xmlns="http://www.w3.org/2000/svg">
<path fill-rule="evenodd" clip-rule="evenodd" d="M5 10C7.76142 10 10 7.76142 10 5C10 2.23858 7.76142 0 5 0C2.23858 0 0 2.23858 0 5C0 7.76142 2.23858 10 5 10ZM5.82396 4.78398C6.02779 4.83519 6.22205 4.91059 6.40082 5.00804L6.40082 5.00698C6.59164 5.10853 6.74739 5.25083 6.85244 5.41957C6.95749 5.5883 7.00803 5.77748 6.99896 5.96798C7.00713 6.21813 6.91923 6.46372 6.74838 6.66797C6.56053 6.88511 6.30221 7.05155 6.00487 7.14697C5.82999 7.20529 5.648 7.24693 5.46223 7.271L5.46231 8H4.75302V7.30001C4.4245 7.2828 4.10319 7.21108 3.80733 7.08901C3.56523 6.98083 3.35761 6.82473 3.2021 6.63401L3 6.38799L3.58279 6.04599L3.78489 6.29201C3.87355 6.40117 3.99194 6.49067 4.13006 6.55303C4.38782 6.65773 4.67171 6.70816 4.9575 6.7H4.97993C5.24123 6.70726 5.50154 6.66917 5.74478 6.58805C5.91512 6.53428 6.06339 6.43975 6.17149 6.31601C6.25213 6.21787 6.29353 6.10046 6.28973 5.98104V5.96702C6.29229 5.86874 6.26458 5.7715 6.20934 5.685C6.15854 5.61678 6.09077 5.55875 6.0107 5.51501C5.88867 5.44888 5.75625 5.39775 5.61715 5.36302C5.50483 5.334 5.37711 5.30505 5.22465 5.27303C5.09578 5.23801 4.96459 5.21102 4.76125 5.173C4.4899 5.12418 4.22349 5.05728 3.96457 4.97302C3.7168 4.89197 3.49804 4.7579 3.32975 4.584L3.31796 4.572C3.13846 4.37147 3.04998 4.12307 3.06854 3.87202C3.07736 3.64426 3.17218 3.42475 3.33923 3.24596L3.34872 3.23599C3.53622 3.04647 3.78144 2.90396 4.05793 2.82402C4.2451 2.77059 4.43846 2.73438 4.63478 2.71604V2H5.34408V2.717C5.48236 2.73102 5.61915 2.75446 5.75306 2.78697C5.9587 2.83658 6.15238 2.91644 6.32521 3.02302C6.46968 3.11092 6.59335 3.22119 6.68933 3.34801L6.8808 3.60003L6.28141 3.92201L6.08995 3.66999C6.04188 3.60644 5.98012 3.5512 5.90789 3.50697C5.80078 3.44119 5.68072 3.39209 5.55324 3.36202C5.37696 3.32073 5.19482 3.29987 5.01185 3.30001C4.76629 3.29443 4.52156 3.32666 4.28961 3.39502C4.13708 3.43939 4.00176 3.51821 3.89836 3.62298C3.82836 3.697 3.78705 3.78746 3.78012 3.88198V3.911C3.77237 4.0187 3.81055 4.12515 3.88773 4.21102C3.97769 4.30037 4.09272 4.36915 4.22226 4.411C4.44704 4.48397 4.67833 4.54179 4.91382 4.58393C5.13478 4.62396 5.2767 4.65298 5.40789 4.68395C5.45744 4.69581 5.50578 4.70715 5.55248 4.7181C5.65172 4.74138 5.74356 4.76292 5.82396 4.78398Z" fill="black" fill-opacity="0.6"/>
</svg>
