<svg width="20" height="20" viewBox="0 0 20 20" fill="none" xmlns="http://www.w3.org/2000/svg">
<g clip-path="url(#clip0_36034_4456)">
<path fill-rule="evenodd" clip-rule="evenodd" d="M14.1667 5.83317C14.1667 8.13436 12.3012 9.99984 10 9.99984C7.69881 9.99984 5.83333 8.13436 5.83333 5.83317C5.83333 3.53198 7.69881 1.6665 10 1.6665C12.3012 1.6665 14.1667 3.53198 14.1667 5.83317ZM12.5 5.83317C12.5 7.21388 11.3807 8.33317 10 8.33317C8.61929 8.33317 7.5 7.21388 7.5 5.83317C7.5 4.45246 8.61929 3.33317 10 3.33317C11.3807 3.33317 12.5 4.45246 12.5 5.83317Z" fill="black" fill-opacity="0.8"/>
<path fill-rule="evenodd" clip-rule="evenodd" d="M2.5 16.9297C2.5 14.0229 4.8564 11.6665 7.76316 11.6665H12.2368C15.1436 11.6665 17.5 14.0229 17.5 16.9297C17.5 17.7048 16.8716 18.3332 16.0965 18.3332H3.90351C3.12837 18.3332 2.5 17.7048 2.5 16.9297ZM12.2368 13.3332C14.1346 13.3332 15.6891 14.8031 15.8239 16.6665H4.17615C4.3109 14.8031 5.86537 13.3332 7.76316 13.3332H12.2368Z" fill="black" fill-opacity="0.8"/>
</g>
<defs>
<clipPath id="clip0_36034_4456">
<rect width="20" height="20" fill="white"/>
</clipPath>
</defs>
</svg>
