<svg width="20" height="20" viewBox="0 0 20 20" fill="none" xmlns="http://www.w3.org/2000/svg">
<path fill-rule="evenodd" clip-rule="evenodd" d="M18.0725 1.47837C18.4066 1.7949 18.4209 2.32235 18.1044 2.65646L15.3165 5.59921C16.7929 6.82383 17.9439 8.26337 18.589 9.15382C18.9582 9.66332 18.9582 10.3367 18.589 10.8462C17.2886 12.641 13.9334 16.6667 9.99934 16.6667C8.58143 16.6667 7.23871 16.1437 6.04028 15.3908L3.10435 18.4898C2.78783 18.8239 2.26038 18.8382 1.92627 18.5216C1.59216 18.2051 1.57791 17.6777 1.89443 17.3435L4.68226 14.4008C3.20579 13.1762 2.05484 11.7366 1.40968 10.8462C1.04052 10.3367 1.04053 9.66332 1.40968 9.15382C2.71008 7.359 6.0653 3.33333 9.99934 3.33333C11.4173 3.33333 12.76 3.8563 13.9585 4.60929L16.8944 1.51021C17.211 1.1761 17.7384 1.16185 18.0725 1.47837ZM9.99934 5C10.9208 5 11.862 5.31435 12.7853 5.84761L12.2028 6.46253C11.5636 6.06363 10.8086 5.83313 9.99969 5.83313C7.69851 5.83313 5.83303 7.69861 5.83303 9.9998C5.83303 10.8894 6.11179 11.7138 6.58673 12.3906L5.83132 13.1879L5.777 13.1434C4.5048 12.0947 3.47721 10.8429 2.85559 10C3.47721 9.15712 4.5048 7.90526 5.777 6.85658C7.14145 5.73187 8.59332 5 9.99934 5ZM7.79649 13.537L7.21343 14.1524C8.13675 14.6857 9.07789 15 9.99934 15C11.4054 15 12.8572 14.2681 14.2217 13.1434C15.4939 12.0947 16.5215 10.8429 17.1431 10C16.5215 9.15712 15.4939 7.90526 14.2217 6.85658L14.1674 6.8121L13.4126 7.6089C13.8876 8.28567 14.1664 9.11018 14.1664 9.9998C14.1664 12.301 12.3009 14.1665 9.99969 14.1665C9.19074 14.1665 8.43564 13.9359 7.79649 13.537ZM12.226 8.86135C12.401 9.2028 12.4997 9.58977 12.4997 9.9998C12.4997 11.3805 11.3804 12.4998 9.99969 12.4998C9.63771 12.4998 9.29369 12.4229 8.98309 12.2844L12.226 8.86135ZM11.0161 7.71508L7.77328 11.1381C7.59838 10.7967 7.49969 10.4098 7.49969 9.9998C7.49969 8.61908 8.61898 7.4998 9.99969 7.4998C10.3616 7.4998 10.7056 7.57671 11.0161 7.71508Z" fill="white"/>
</svg>
