<svg width="72" height="72" viewBox="0 0 72 72" fill="none" xmlns="http://www.w3.org/2000/svg">
<circle cx="36" cy="36" r="36" fill="#63C58C" fill-opacity="0.1"/>
<path fill-rule="evenodd" clip-rule="evenodd" d="M56.7467 36.0004C56.7467 47.4588 47.4578 56.7477 35.9994 56.7477C24.541 56.7477 15.2521 47.4588 15.2521 36.0004C15.2521 24.5419 24.541 15.253 35.9994 15.253C47.4578 15.253 56.7467 24.5419 56.7467 36.0004ZM59.5379 36.0004C59.5379 49.0003 48.9993 59.5388 35.9994 59.5388C22.9995 59.5388 12.4609 49.0003 12.4609 36.0004C12.4609 23.0004 22.9995 12.4619 35.9994 12.4619C48.9993 12.4619 59.5379 23.0004 59.5379 36.0004ZM48.1706 28.8974C48.7694 28.1101 48.6167 26.9865 47.8295 26.3877C47.0422 25.7888 45.9186 25.9416 45.3197 26.7288L33.7479 41.9415L27.0625 34.9173C26.3806 34.2008 25.247 34.1728 24.5305 34.8547C23.814 35.5366 23.786 36.6702 24.4679 37.3867L31.7746 45.0637C32.9694 46.3191 35.004 46.2067 36.0532 44.8273L48.1706 28.8974Z" fill="#7DD3A1"/>
</svg>
