<svg width="24" height="24" viewBox="0 0 24 24" xmlns="http://www.w3.org/2000/svg">
<path d="M6.74273 6.65727C6.35383 7.04811 6.35415 7.68096 6.74273 8.07148L10.9643 12.3141L6.74273 16.5568C6.35383 16.9476 6.35414 17.5805 6.74273 17.971C7.13131 18.3615 7.76101 18.3618 8.1499 17.971L12.3714 13.7283L16.593 17.971C16.9816 18.3615 17.6112 18.3618 18.0001 17.971C18.389 17.5801 18.3887 16.9473 18.0001 16.5568L13.7786 12.3141L18.0001 8.07148C18.389 7.68064 18.3887 7.04779 18.0001 6.65727C17.6116 6.26675 16.9819 6.26643 16.593 6.65727L12.3714 10.8999L8.1499 6.65727C7.76132 6.26675 7.13162 6.26643 6.74273 6.65727Z" />
</svg>
