<svg width="72" height="72" viewBox="0 0 72 72" fill="none" xmlns="http://www.w3.org/2000/svg">
<circle cx="36" cy="36" r="36" fill="#FFF3F3"/>
<path fill-rule="evenodd" clip-rule="evenodd" d="M56.7467 36.0004C56.7467 47.4588 47.4578 56.7477 35.9994 56.7477C24.541 56.7477 15.2521 47.4588 15.2521 36.0004C15.2521 24.5419 24.541 15.253 35.9994 15.253C47.4578 15.253 56.7467 24.5419 56.7467 36.0004ZM59.5379 36.0004C59.5379 49.0003 48.9993 59.5388 35.9994 59.5388C22.9995 59.5388 12.4609 49.0003 12.4609 36.0004C12.4609 23.0004 22.9995 12.4619 35.9994 12.4619C48.9993 12.4619 59.5379 23.0004 59.5379 36.0004ZM28.2209 28.2219C27.6759 28.7669 27.6759 29.6505 28.2209 30.1955L34.1418 36.1164L28.2209 42.0373C27.6759 42.5823 27.6759 43.4659 28.2209 44.0109C28.7659 44.5559 29.6495 44.5559 30.1945 44.0109L36.1154 38.09L42.0363 44.0108C42.5813 44.5559 43.4649 44.5559 44.0099 44.0108C44.5549 43.4658 44.5549 42.5822 44.0099 42.0372L38.089 36.1164L44.0099 30.1956C44.5549 29.6506 44.5549 28.7669 44.0099 28.2219C43.4649 27.6769 42.5813 27.6769 42.0363 28.2219L36.1154 34.1428L30.1945 28.2219C29.6495 27.6769 28.7659 27.6769 28.2209 28.2219Z" fill="#FF5A5A"/>
</svg>
