<svg width="16" height="16" viewBox="0 0 16 16" fill="#7191FC" fill-opacity="0.5" xmlns="http://www.w3.org/2000/svg">
<path fill-rule="evenodd" clip-rule="evenodd" d="M11.9998 2.66659V11.9999H12.6665C13.0347 11.9999 13.3332 11.7014 13.3332 11.3333V1.99992C13.3332 1.63173 13.0347 1.33325 12.6665 1.33325H5.99984C5.63165 1.33325 5.33317 1.63173 5.33317 1.99992V2.66659H11.9998ZM3.99984 13.3333V5.33325H9.33317V13.3333H3.99984ZM2.6665 4.66659C2.6665 4.2984 2.96498 3.99992 3.33317 3.99992H9.99984C10.368 3.99992 10.6665 4.2984 10.6665 4.66659V13.9999C10.6665 14.3681 10.368 14.6666 9.99984 14.6666H3.33317C2.96498 14.6666 2.6665 14.3681 2.6665 13.9999V4.66659Z" />
</svg>
