<svg width="12" height="14" fill="red" viewBox="0 0 12 14" fill="none" xmlns="http://www.w3.org/2000/svg">
<path fill-rule="evenodd" clip-rule="evenodd" d="M10.0003 1.66732V11.0007H10.667C11.0352 11.0007 11.3337 10.7022 11.3337 10.334V1.00065C11.3337 0.632461 11.0352 0.333984 10.667 0.333984H4.00033C3.63214 0.333984 3.33366 0.632461 3.33366 1.00065V1.66732H10.0003ZM2.00033 12.334V4.33398H7.33366V12.334H2.00033ZM0.666992 3.66732C0.666992 3.29913 0.965469 3.00065 1.33366 3.00065H8.00033C8.36852 3.00065 8.66699 3.29913 8.66699 3.66732V13.0007C8.66699 13.3688 8.36851 13.6673 8.00033 13.6673H1.33366C0.965469 13.6673 0.666992 13.3688 0.666992 13.0007V3.66732Z" fill="red"/>
</svg>
