<svg width="16" height="16" viewBox="0 0 16 16" fill="none" xmlns="http://www.w3.org/2000/svg">
<path fill-rule="evenodd" clip-rule="evenodd" d="M11.7177 12.7806C12.011 13.074 12.4866 13.074 12.78 12.7806C13.0733 12.4873 13.0733 12.0117 12.78 11.7183L9.06108 7.9994L12.7784 4.28208C13.0718 3.98873 13.0718 3.51312 12.7784 3.21977C12.4851 2.92642 12.0094 2.92642 11.7161 3.21977L7.99877 6.93709L4.28152 3.21984C3.98818 2.9265 3.51256 2.9265 3.21922 3.21984C2.92587 3.51319 2.92587 3.9888 3.21922 4.28215L6.93646 7.9994L3.21763 11.7182C2.92428 12.0116 2.92428 12.4872 3.21763 12.7805C3.51098 13.0739 3.98659 13.0739 4.27994 12.7805L7.99877 9.06171L11.7177 12.7806Z" fill="#597FFF"/>
</svg>
