<svg width="88" height="91" viewBox="0 0 88 91" fill="none" xmlns="http://www.w3.org/2000/svg">
<circle cx="44" cy="44" r="44" fill="#F0F1F5"/>
<mask id="mask0_31856_534722" style="mask-type:alpha" maskUnits="userSpaceOnUse" x="0" y="0" width="88" height="88">
<circle cx="44" cy="44" r="44" fill="#F0F1F5"/>
</mask>
<g mask="url(#mask0_31856_534722)">
<rect x="11" y="23" width="67" height="68" rx="4" fill="white"/>
<rect x="17" y="31" width="55" height="24" rx="2" fill="#F0F2F5"/>
<rect x="17" y="58" width="55" height="4" rx="2" fill="#F0F2F5"/>
<rect x="17" y="66" width="55" height="4" rx="2" fill="#F0F2F5"/>
<path fill-rule="evenodd" clip-rule="evenodd" d="M36 19C35.3705 19 34.7777 19.2964 34.4 19.8L32.75 22H24C23.4477 22 23 22.4477 23 23V26C23 26.5523 23.4477 27 24 27H64C64.5523 27 65 26.5523 65 26V23C65 22.4477 64.5523 22 64 22H55.25L53.6 19.8C53.2223 19.2964 52.6295 19 52 19H36Z" fill="#D1D2D4"/>
</g>
<path d="M55.3824 80.4658C54.1012 79.184 54.1016 77.1062 55.3834 75.825C56.6651 74.5438 58.7429 74.5442 60.0241 75.826L67.6798 83.4848C68.9611 84.7666 68.9606 86.8443 67.6788 88.1256C66.3971 89.4068 64.3193 89.4064 63.0381 88.1246L55.3824 80.4658Z" fill="#C8C9CC"/>
<path fill-rule="evenodd" clip-rule="evenodd" d="M51.4326 56.1913C55.9759 60.6179 56.0705 67.8893 51.644 72.4326C47.2174 76.9759 39.946 77.0705 35.4027 72.644C30.8594 68.2174 30.7648 60.9459 35.1913 56.4027C39.6179 51.8594 46.8893 51.7648 51.4326 56.1913ZM54.9663 73.0866C59.2709 67.3671 58.7562 59.2034 53.4936 54.076C47.7821 48.5112 38.6408 48.6301 33.076 54.3417C27.5112 60.0532 27.6301 69.1945 33.3417 74.7593C38.707 79.9868 47.0989 80.1987 52.7095 75.4706L55.1831 77.9453C55.8061 78.5685 56.8164 78.5687 57.4397 77.9457L57.5035 77.8819C58.1267 77.2589 58.127 76.2486 57.504 75.6254L54.9663 73.0866Z" fill="#E9EBEE"/>
<path d="M51.484 56.1393C56.056 60.5938 56.1513 67.9113 51.6967 72.4834C47.2421 77.0554 39.9246 77.1506 35.3526 72.6961C30.7806 68.2415 30.6854 60.924 35.1399 56.352C39.5945 51.7799 46.912 51.6847 51.484 56.1393Z" fill="url(#paint0_radial_31856_534722)" fill-opacity="0.7"/>
<defs>
<radialGradient id="paint0_radial_31856_534722" cx="0" cy="0" r="1" gradientUnits="userSpaceOnUse" gradientTransform="translate(43.4567 64.5052) rotate(44.0751) scale(11.4695)">
<stop stop-color="white" stop-opacity="0.2"/>
<stop offset="1" stop-color="white"/>
</radialGradient>
</defs>
</svg>
