<svg width="109" height="103" viewBox="0 0 109 103" fill="none" xmlns="http://www.w3.org/2000/svg">
<g opacity="0.8">
<path d="M12.8074 29.6018C12.181 26.204 14.3774 22.9263 17.7582 22.2138L59.8272 13.3479C63.3316 12.6094 66.7558 14.904 67.4052 18.426L72.7191 47.249L79.4892 75.7651C80.3165 79.2496 78.1095 82.731 74.6051 83.4696L32.5361 92.3355C29.1554 93.048 25.823 90.9355 25.0249 87.5739L18.18 58.743L12.8074 29.6018Z" fill="#E5E7EB"/>
<mask id="mask0_25663_425822" style="mask-type:alpha" maskUnits="userSpaceOnUse" x="12" y="13" width="68" height="80">
<path d="M12.8074 29.602C12.181 26.2043 14.3774 22.9265 17.7582 22.2141L59.8272 13.3481C63.3316 12.6096 66.7558 14.9043 67.4052 18.4263L72.7191 47.2493L79.4892 75.7654C80.3165 79.2499 78.1095 82.7313 74.6051 83.4698L32.5361 92.3358C29.1554 93.0482 25.823 90.9357 25.0249 87.5741L18.18 58.7432L12.8074 29.602Z" fill="#D6DCE8"/>
</mask>
<g mask="url(#mask0_25663_425822)">
<path d="M32.7299 16.1606C32.7648 12.7058 35.5476 9.90863 39.0022 9.85587L81.9903 9.19933C85.5712 9.14463 88.4934 12.0518 88.4572 15.633L88.1606 44.9402L89.352 74.2248C89.4976 77.8032 86.6655 80.7982 83.0846 80.8529L40.0965 81.5095C36.6419 81.5622 33.775 78.8514 33.6346 75.3992L32.43 45.7914L32.7299 16.1606Z" fill="#D2D3D6"/>
</g>
<path d="M27.8568 14.8831C27.7542 11.4229 30.4338 8.51418 33.8908 8.33312L40.9068 7.96568L55.5063 7.27254L76.8147 6.21129C80.3916 6.03314 83.4123 8.83783 83.4996 12.4181L84.2138 41.7182L86.4145 70.9442C86.6834 74.5154 83.9563 77.6064 80.3793 77.7845L37.4395 79.9231C33.9887 80.095 31.0301 77.4846 30.7707 74.0394L28.5457 44.4907L28.109 23.3898L27.8568 14.8831Z" fill="#FCFDFE"/>
<path d="M38.3076 43.8232C38.2693 43.0076 38.8991 42.3093 39.7144 42.2634L64.7492 40.8549C65.5644 40.809 66.2563 41.433 66.2946 42.2486C66.3329 43.0642 65.7031 43.7626 64.8879 43.8085L39.8531 45.217C39.0378 45.2628 38.3459 44.6388 38.3076 43.8232Z" fill="#D2D3D6"/>
<path d="M37.4111 24.7385C37.3728 23.9229 38.0027 23.2245 38.8179 23.1787L73.2285 21.2427C74.0437 21.1968 74.7356 21.8208 74.7739 22.6364C74.8122 23.452 74.1824 24.1504 73.3672 24.1962L38.9566 26.1322C38.1414 26.1781 37.4495 25.5541 37.4111 24.7385Z" fill="#D2D3D6"/>
<path d="M38.7666 53.593C38.7283 52.7774 39.3581 52.079 40.1733 52.0332L74.5839 50.0972C75.3992 50.0513 76.0911 50.6753 76.1294 51.4909C76.1677 52.3065 75.5379 53.0049 74.7226 53.0507L40.3121 54.9867C39.4968 55.0326 38.8049 54.4086 38.7666 53.593Z" fill="#D2D3D6"/>
<path d="M37.8486 34.0532C37.8103 33.2376 38.4402 32.5392 39.2554 32.4934L44.0858 32.2216C44.901 32.1757 45.5929 32.7997 45.6312 33.6153C45.6695 34.4309 45.0397 35.1293 44.2245 35.1752L39.3941 35.4469C38.5789 35.4928 37.887 34.8688 37.8486 34.0532Z" fill="#D2D3D6"/>
<path d="M52.4072 33.2346C52.3689 32.419 52.9988 31.7206 53.814 31.6748L73.6664 30.5578C74.4816 30.512 75.1735 31.136 75.2118 31.9516C75.2501 32.7672 74.6203 33.4655 73.8051 33.5114L53.9527 34.6283C53.1375 34.6742 52.4455 34.0502 52.4072 33.2346Z" fill="#D2D3D6"/>
<path d="M66.7705 61.3569C66.7322 60.5413 67.362 59.8429 68.1773 59.7971L75.0214 59.412C75.8366 59.3661 76.5285 59.9901 76.5668 60.8058C76.6051 61.6214 75.9753 62.3197 75.1601 62.3656L68.316 62.7507C67.5007 62.7965 66.8088 62.1725 66.7705 61.3569Z" fill="#D2D3D6"/>
<path d="M39.2041 62.9077C39.1658 62.0921 39.7956 61.3937 40.6108 61.3479L62.2649 60.1296C63.0801 60.0837 63.772 60.7077 63.8103 61.5233C63.8486 62.3389 63.2188 63.0373 62.4036 63.0831L40.7495 64.3014C39.9343 64.3473 39.2424 63.7233 39.2041 62.9077Z" fill="#D2D3D6"/>
<path d="M82.8904 15.8033C91.848 24.5308 92.0346 38.8673 83.3072 47.8249C74.5797 56.7825 60.2432 56.9691 51.2856 48.2416C42.328 39.5142 42.1414 25.1776 50.8688 16.2201C59.5963 7.26246 73.9328 7.07589 82.8904 15.8033Z" fill="white" fill-opacity="0.16"/>
<path d="M85.8532 57.1902C83.8438 55.1799 83.8445 51.9213 85.8547 49.9119C87.865 47.9025 91.1236 47.9032 93.133 49.9134L105.14 61.9251C107.149 63.9353 107.148 67.1939 105.138 69.2033C103.128 71.2127 99.8692 71.212 97.8598 69.2018L85.8532 57.1902Z" fill="#C8C9CC"/>
<path d="M82.8904 15.8024C91.848 24.5298 92.0346 38.8664 83.3072 47.824C74.5797 56.7815 60.2432 56.9681 51.2856 48.2407C42.328 39.5132 42.1414 25.1767 50.8688 16.2191C59.5963 7.26148 73.9328 7.07491 82.8904 15.8024Z" fill="white"/>
<path fill-rule="evenodd" clip-rule="evenodd" d="M79.6581 19.1199C86.7835 26.0622 86.9319 37.4663 79.9896 44.5916C73.0473 51.717 61.6432 51.8654 54.5179 44.9231C47.3925 37.9808 47.2441 26.5768 54.1864 19.4514C61.1287 12.326 72.5328 12.1776 79.6581 19.1199ZM85.2 45.6173C91.9511 36.6472 91.1439 23.8438 82.8904 15.8024C73.9328 7.07491 59.5963 7.26148 50.8688 16.2191C42.1414 25.1767 42.328 39.5132 51.2856 48.2407C59.7002 56.4391 72.8614 56.7714 81.6606 49.3562L85.5401 53.2373C86.5171 54.2148 88.1016 54.2151 89.0791 53.238L89.1792 53.138C90.1567 52.1609 90.157 50.5764 89.18 49.5989L85.2 45.6173Z" fill="#E9EBEE"/>
<mask id="mask1_25663_425822" style="mask-type:alpha" maskUnits="userSpaceOnUse" x="48" y="13" width="38" height="38">
<path d="M79.7377 19.0394C86.9081 26.0256 87.0575 37.5018 80.0713 44.6723C73.085 51.8427 61.6088 51.9921 54.4383 45.0059C47.2679 38.0197 47.1185 26.5434 54.1048 19.373C61.091 12.2025 72.5672 12.0532 79.7377 19.0394Z" fill="white"/>
</mask>
<g mask="url(#mask1_25663_425822)">
<path d="M33.3278 47.4887C33.2794 46.4593 34.0743 45.5778 35.1033 45.5199L66.7009 43.7422C67.7298 43.6843 68.6031 44.4719 68.6514 45.5013C68.6998 46.5307 67.9049 47.4121 66.8759 47.47L35.2783 49.2478C34.2494 49.3057 33.3761 48.5181 33.3278 47.4887Z" fill="#D2D3D6"/>
<path d="M32.1969 23.4015C32.1486 22.3721 32.9435 21.4907 33.9724 21.4328L73.7887 19.1926C74.8176 19.1347 75.6909 19.9223 75.7393 20.9517C75.7876 21.9812 74.9927 22.8626 73.9638 22.9205L34.1475 25.1606C33.1185 25.2185 32.2452 24.4309 32.1969 23.4015Z" fill="#D2D3D6"/>
<path d="M54.7692 33.9189C54.7208 32.8894 55.5157 32.008 56.5447 31.9501L77.9552 30.7455C78.9842 30.6876 79.8575 31.4752 79.9058 32.5046C79.9541 33.534 79.1592 34.4155 78.1303 34.4734L56.7197 35.678C55.6908 35.7359 54.8175 34.9483 54.7692 33.9189Z" fill="#D2D3D6"/>
</g>
<path d="M79.7377 19.0384C86.9081 26.0246 87.0575 37.5009 80.0713 44.6713C73.085 51.8418 61.6088 51.9911 54.4383 45.0049C47.2679 38.0187 47.1185 26.5424 54.1048 19.372C61.091 12.2015 72.5672 12.0522 79.7377 19.0384Z" fill="url(#paint0_radial_25663_425822)" fill-opacity="0.7"/>
<path d="M44.5722 81.2793C44.5722 89.4271 37.9671 96.0322 29.8193 96.0322C21.6715 96.0322 15.0664 89.4271 15.0664 81.2793C15.0664 73.1315 21.6715 66.5264 29.8193 66.5264C37.9671 66.5264 44.5722 73.1315 44.5722 81.2793Z" fill="#D2D3D6"/>
<path fill-rule="evenodd" clip-rule="evenodd" d="M36.4122 74.9005C35.8714 74.3597 34.9946 74.3597 34.4538 74.9005L29.8027 79.5516L25.1516 74.9005C24.6108 74.3597 23.734 74.3597 23.1932 74.9005C22.6524 75.4413 22.6524 76.3181 23.1932 76.8589L27.8443 81.51L23.1932 86.1611C22.6525 86.7019 22.6525 87.5786 23.1932 88.1194C23.734 88.6602 24.6108 88.6602 25.1516 88.1194L29.8027 83.4683L34.4538 88.1195C34.9946 88.6603 35.8714 88.6603 36.4122 88.1195C36.953 87.5787 36.953 86.7019 36.4122 86.1611L31.7611 81.51L36.4122 76.8588C36.953 76.3181 36.953 75.4413 36.4122 74.9005Z" fill="#FCFDFE"/>
</g>
<defs>
<radialGradient id="paint0_radial_25663_425822" cx="0" cy="0" r="1" gradientUnits="userSpaceOnUse" gradientTransform="translate(67.1482 32.1589) rotate(44.0751) scale(17.9879)">
<stop stop-color="white" stop-opacity="0.2"/>
<stop offset="1" stop-color="white"/>
</radialGradient>
</defs>
</svg>
